<?xml version="1.0" standalone="no"?>
<!DOCTYPE svg PUBLIC "-//W3C//DTD SVG 20010904//EN"
 "http://www.w3.org/TR/2001/REC-SVG-20010904/DTD/svg10.dtd">
<svg version="1.0" xmlns="http://www.w3.org/2000/svg"
 width="260.000000pt" height="260.000000pt" viewBox="0 0 260.000000 260.000000"
 preserveAspectRatio="xMidYMid meet">
<metadata>
Created by potrace 1.11, written by Peter Selinger 2001-2013
</metadata>
<g transform="translate(0.000000,260.000000) scale(0.100000,-0.100000)"
fill="#000000" stroke="none">
<path d="M1346 2404 c-154 -37 -288 -156 -354 -316 -17 -41 -34 -87 -38 -103
-5 -17 -10 -410 -11 -874 l-4 -843 40 -38 c33 -32 50 -40 96 -45 72 -9 124 -2
177 24 76 36 72 7 74 576 1 281 2 513 3 518 0 4 84 7 186 7 124 0 193 4 211
12 75 34 78 207 5 253 -9 6 -104 12 -211 15 l-195 5 1 170 c0 167 1 172 28
222 43 78 96 103 232 108 86 3 112 7 133 23 91 67 85 233 -9 284 -29 15 -57
18 -170 17 -79 0 -159 -7 -194 -15z"/>
</g>
</svg>
