<?xml version="1.0" encoding="utf-8"?>
<!-- Generator: Adobe Illustrator 19.0.0, SVG Export Plug-In . SVG Version: 6.00 Build 0)  -->
<svg version="1.1" id="Layer_1" xmlns="http://www.w3.org/2000/svg" xmlns:xlink="http://www.w3.org/1999/xlink" x="0px" y="0px"
	 viewBox="0 0 320 35" style="enable-background:new 0 0 320 35;" xml:space="preserve">
<style type="text/css">
	.st0{enable-background:new    ;}
</style>
<g class="st0">
	<path d="M125.6,13.3h5.3c0.4,0,0.8,0.4,0.8,0.8c0,0.4-0.3,0.8-0.8,0.8h-5.3v14.7c0,0.5-0.4,0.8-0.9,0.8c-0.5,0-0.8-0.3-0.8-0.8V9.3
		c0-3.5,2.9-6.5,6.4-6.5h0.6c0.5,0,0.8,0.4,0.8,0.9c0,0.5-0.4,0.8-0.8,0.8h-0.5c-2.7,0-4.7,2.3-4.8,4.8V13.3z"/>
	<path d="M146.3,19.7v4.2c0,3.5-3.1,6.6-6.6,6.6s-6.6-3.1-6.6-6.6v-4.2c0-3.5,3-6.6,6.6-6.6C143.2,13.1,146.3,16,146.3,19.7z
		 M144.6,19.7c0-2.5-2.2-4.9-4.8-4.9c-2.7,0-4.8,2.4-4.8,4.9v4.2c0,2.6,2.1,5,4.8,5c2.7,0,4.8-2.4,4.8-5V19.7z"/>
	<path d="M158.6,26.1c0-5.2-8.9-2.3-8.9-8.3c0-2.2,1.6-4.7,5.5-4.7c2.2,0,4.6,0.8,4.6,1.6c0,0.3-0.4,0.9-0.8,0.9c-0.5,0-1.6-1-3.8-1
		c-2.8,0-3.8,1.8-3.8,3.1c0,4.5,9,1.7,9,8.2c0,2.8-2,4.5-5.6,4.5c-3.3,0-5.4-1.5-5.4-2.4c0-0.4,0.3-0.8,0.6-0.8
		c0.7,0,1.4,1.7,4.7,1.7C157.6,28.9,158.6,27.6,158.6,26.1z"/>
	<path d="M163.4,23.8v-4.1c0-3.7,2.1-6.6,6.8-6.6c2.9,0,4.8,1.4,4.8,2.2c0,0.4-0.4,0.9-0.8,0.9c-0.6,0-1.3-1.4-4-1.4
		c-3.3,0-5,1.9-5,5v4.1c0,3.1,1.7,5,5.1,5c2.9,0,3.5-1.4,4.2-1.4c0.4,0,0.8,0.5,0.8,0.9c0,0.9-1.9,2.2-5.1,2.2
		C165.5,30.5,163.4,27.6,163.4,23.8z"/>
	<path d="M189.5,20v9.5c0,0.4-0.4,0.8-0.9,0.8c-0.5,0-0.9-0.4-0.9-0.8v-1.7c-1.2,1.4-3,2.7-5.4,2.7c-2.8,0-5-1.5-5-4.7
		c0-3.8,3.4-4.8,8.4-4.8h1.9V20c0-2.5-1.3-5.3-4.5-5.3c-2.3,0-3.3,1-3.8,1s-0.8-0.6-0.8-1c0-0.8,2.4-1.7,4.6-1.7
		C187.8,13.1,189.5,16.4,189.5,20z M187.7,22.4h-1.8c-3.5,0-6.8,0.3-6.8,3.3c0,2.2,1.5,3.2,3.4,3.2c2.5,0,5.1-2.3,5.1-3.9V22.4z"/>
</g>
</svg>
